<?xml version="1.0" standalone="no"?>
<!DOCTYPE svg PUBLIC "-//W3C//DTD SVG 20010904//EN"
 "http://www.w3.org/TR/2001/REC-SVG-20010904/DTD/svg10.dtd">
<svg version="1.0" xmlns="http://www.w3.org/2000/svg"
 width="1200.000000pt" height="1200.000000pt" viewBox="0 0 1200.000000 1200.000000"
 preserveAspectRatio="xMidYMid meet">
<metadata>
Created by potrace 1.15, written by Peter Selinger 2001-2017
</metadata>
<g transform="translate(0.000000,1200.000000) scale(0.100000,-0.100000)"
fill="#000000" stroke="none">
<path d="M5830 11570 c-866 -51 -1673 -413 -2285 -1025 -704 -704 -1074 -1664
-1024 -2655 10 -209 23 -317 60 -509 59 -303 147 -565 285 -849 129 -268 250
-459 433 -687 250 -310 362 -543 536 -1110 20 -66 54 -157 75 -202 142 -305
397 -529 700 -616 171 -49 210 -52 695 -52 l460 0 80 28 c100 35 166 73 259
147 254 201 591 626 1049 1321 184 280 243 380 353 602 139 283 260 587 324
813 211 750 20 1347 -518 1618 -130 66 -343 116 -493 116 -218 0 -458 -105
-702 -308 l-78 -64 -87 84 c-244 234 -461 321 -750 297 -543 -43 -943 -412
-1037 -953 -19 -114 -20 -360 0 -490 63 -419 247 -794 622 -1268 186 -235 449
-515 516 -549 81 -42 212 -43 290 -3 49 26 107 86 135 138 24 45 27 62 27 146
0 124 -11 144 -170 313 -561 599 -810 1052 -809 1472 0 135 16 211 66 309 40
80 127 164 209 205 79 39 212 65 287 56 104 -13 250 -109 343 -226 l31 -40
-22 -87 c-28 -109 -38 -288 -20 -363 29 -125 125 -245 236 -296 48 -22 66 -25
124 -21 83 6 134 33 207 110 85 91 133 210 133 333 0 61 -22 214 -39 272 -9
29 -6 34 47 88 114 114 284 202 408 213 126 10 272 -45 367 -136 92 -89 143
-261 133 -447 -15 -267 -126 -601 -352 -1055 -215 -432 -487 -844 -817 -1236
-267 -319 -384 -438 -467 -478 l-65 -31 -340 1 c-378 0 -424 6 -539 66 -136
72 -224 203 -287 428 -103 371 -264 737 -443 1010 -35 52 -110 154 -168 226
-354 441 -551 888 -634 1439 -22 142 -29 494 -15 651 53 564 269 1101 621
1544 103 130 312 339 446 446 406 325 870 527 1404 611 164 26 635 26 800 0
473 -74 908 -248 1268 -505 568 -408 966 -993 1131 -1662 101 -409 113 -781
41 -1210 -88 -522 -308 -1028 -609 -1399 -141 -175 -172 -216 -240 -321 -266
-408 -441 -917 -511 -1485 -6 -49 -17 -198 -24 -330 -15 -278 -18 -287 -120
-393 -163 -170 -480 -306 -928 -396 -405 -82 -792 -120 -1383 -134 l-300 -8
-63 -34 c-107 -57 -154 -133 -160 -262 -4 -76 -1 -92 20 -140 33 -71 75 -118
140 -153 50 -28 61 -30 178 -32 1080 -22 1235 -28 1550 -58 436 -42 725 -124
843 -239 61 -59 68 -88 31 -127 -63 -65 -228 -115 -494 -149 -267 -34 -463
-41 -1255 -47 -721 -5 -773 -7 -821 -24 -71 -27 -127 -79 -163 -151 -27 -53
-31 -72 -31 -143 0 -72 4 -90 31 -144 21 -43 47 -75 81 -101 81 -65 113 -70
432 -70 325 0 803 -15 991 -30 463 -38 783 -126 1015 -279 81 -53 212 -183
284 -281 77 -104 86 -112 161 -146 114 -52 250 -31 348 55 76 67 113 201 87
311 -29 122 -231 366 -436 526 l-53 41 37 17 c65 32 174 106 229 159 111 105
184 235 215 384 19 93 19 103 4 205 -41 287 -225 514 -528 652 l-73 33 81 41
c183 92 378 249 486 392 60 79 140 241 163 330 10 38 20 141 26 250 26 521 84
833 214 1166 98 251 221 462 385 659 342 411 578 882 719 1436 257 1007 93
2030 -460 2869 -439 667 -1110 1179 -1860 1418 -399 128 -863 186 -1279 162z"/>
</g>
</svg>
