<?xml version="1.0" encoding="UTF-8" standalone="no"?>
<!-- Created with Inkscape (http://www.inkscape.org/) -->

<svg
   xmlns:dc="http://purl.org/dc/elements/1.1/"
   xmlns:cc="http://creativecommons.org/ns#"
   xmlns:rdf="http://www.w3.org/1999/02/22-rdf-syntax-ns#"
   xmlns:svg="http://www.w3.org/2000/svg"
   xmlns="http://www.w3.org/2000/svg"
   xmlns:sodipodi="http://sodipodi.sourceforge.net/DTD/sodipodi-0.dtd"
   xmlns:inkscape="http://www.inkscape.org/namespaces/inkscape"
   width="1000"
   height="300"
   viewBox="0 0 264.58334 79.374998"
   version="1.1"
   id="svg8"
   inkscape:version="0.92.3 (2405546, 2018-03-11)"
   sodipodi:docname="eaberlinlogo.svg">
  <defs
     id="defs2" />
  <sodipodi:namedview
     id="base"
     pagecolor="#ffffff"
     bordercolor="#666666"
     borderopacity="1.0"
     inkscape:pageopacity="0.0"
     inkscape:pageshadow="2"
     inkscape:zoom="1.979899"
     inkscape:cx="397.0066"
     inkscape:cy="177.219"
     inkscape:document-units="mm"
     inkscape:current-layer="layer1"
     showgrid="false"
     units="px"
     inkscape:window-width="3200"
     inkscape:window-height="1752"
     inkscape:window-x="0"
     inkscape:window-y="0"
     inkscape:window-maximized="1" />
  <metadata
     id="metadata5">
    <rdf:RDF>
      <cc:Work
         rdf:about="">
        <dc:format>image/svg+xml</dc:format>
        <dc:type
           rdf:resource="http://purl.org/dc/dcmitype/StillImage" />
        <dc:title />
      </cc:Work>
    </rdf:RDF>
  </metadata>
  <g
     inkscape:label="Layer 1"
     inkscape:groupmode="layer"
     id="layer1"
     transform="translate(0,-217.62501)"
     style="display:inline">
    <g
       id="g845">
      <g
         aria-label="Effective Altruism
Berlin"
         transform="matrix(0.59561243,0,0,0.59561243,-102.16919,205.45227)"
         style="font-style:normal;font-weight:normal;font-size:40px;line-height:1.25;font-family:sans-serif;letter-spacing:0px;word-spacing:0px;fill:#000000;fill-opacity:0.82338897;stroke:none"
         id="flowRoot4529">
        <path
           d="m 272.58117,46.21373 v 28.56 c 0,0.4 0.12,0.56 0.56,0.56 h 18.36 c 0.32,0 0.44,-0.16 0.44,-0.44 v -2.12 c 0,-0.32 -0.12,-0.4 -0.44,-0.4 h -14.68 c -0.32,0 -0.4,-0.08 -0.4,-0.4 v -9.72 c 0,-0.32 0.12,-0.44 0.44,-0.44 h 10.36 c 0.32,0 0.44,-0.12 0.44,-0.36 v -2.12 c 0,-0.32 -0.12,-0.44 -0.44,-0.44 h -10.36 c -0.32,0 -0.44,-0.12 -0.44,-0.44 v -9.36 c 0,-0.4 0.12,-0.48 0.52,-0.48 h 13.96 c 0.36,0 0.52,-0.16 0.52,-0.48 v -2.04 c 0,-0.28 -0.12,-0.44 -0.4,-0.44 h -17.96 c -0.36,0 -0.48,0.16 -0.48,0.56 z"
           style="font-style:normal;font-variant:normal;font-weight:normal;font-stretch:normal;font-family:'Libre Franklin';-inkscape-font-specification:'Libre Franklin';fill:#000000;fill-opacity:0.82338897"
           id="path847" />
        <path
           d="m 307.65742,54.13373 h -4.6 c -0.24,0 -0.36,-0.08 -0.36,-0.36 v -2.8 c 0,-1.8 0.64,-2.88 2.32,-2.88 h 2.8 c 0.28,0 0.44,-0.16 0.44,-0.4 v -1.56 c 0,-0.32 -0.16,-0.48 -0.52,-0.48 h -3.32 c -3.36,0 -5,1.8 -5,5.16 v 2.92 c 0,0.28 -0.08,0.4 -0.36,0.4 h -3.8 c -0.32,0 -0.44,0.16 -0.44,0.4 v 1.72 c 0,0.28 0.12,0.36 0.4,0.36 h 3.92 c 0.2,0 0.28,0.12 0.28,0.32 v 17.88 c 0,0.36 0.12,0.52 0.44,0.52 h 2.44 c 0.32,0 0.48,-0.16 0.48,-0.56 v -17.8 c 0,-0.24 0.12,-0.36 0.32,-0.36 h 4.56 c 0.24,0 0.4,-0.08 0.4,-0.36 v -1.72 c 0,-0.24 -0.16,-0.4 -0.4,-0.4 z"
           style="font-style:normal;font-variant:normal;font-weight:normal;font-stretch:normal;font-family:'Libre Franklin';-inkscape-font-specification:'Libre Franklin';fill:#000000;fill-opacity:0.82338897"
           id="path849" />
        <path
           d="m 322.81367,54.13373 h -4.6 c -0.24,0 -0.36,-0.08 -0.36,-0.36 v -2.8 c 0,-1.8 0.64,-2.88 2.32,-2.88 h 2.8 c 0.28,0 0.44,-0.16 0.44,-0.4 v -1.56 c 0,-0.32 -0.16,-0.48 -0.52,-0.48 h -3.32 c -3.36,0 -5,1.8 -5,5.16 v 2.92 c 0,0.28 -0.08,0.4 -0.36,0.4 h -3.8 c -0.32,0 -0.44,0.16 -0.44,0.4 v 1.72 c 0,0.28 0.12,0.36 0.4,0.36 h 3.92 c 0.2,0 0.28,0.12 0.28,0.32 v 17.88 c 0,0.36 0.12,0.52 0.44,0.52 h 2.44 c 0.32,0 0.48,-0.16 0.48,-0.56 v -17.8 c 0,-0.24 0.12,-0.36 0.32,-0.36 h 4.56 c 0.24,0 0.4,-0.08 0.4,-0.36 v -1.72 c 0,-0.24 -0.16,-0.4 -0.4,-0.4 z"
           style="font-style:normal;font-variant:normal;font-weight:normal;font-stretch:normal;font-family:'Libre Franklin';-inkscape-font-specification:'Libre Franklin';fill:#000000;fill-opacity:0.82338897"
           id="path851" />
        <path
           d="m 328.70867,66.05373 c 0,-0.36 0.12,-0.6 0.36,-0.6 h 15.32 c 0.64,0 0.6,-0.44 0.6,-0.88 0,-6.84 -3.84,-10.84 -9.64,-10.84 -5.72,0 -10.12,4.28 -10.12,11.2 0,6.4 4.24,10.8 10.16,10.8 3.96,0 6.76,-1.36 8.88,-4.6 0.16,-0.24 0.12,-0.44 -0.08,-0.56 l -1.68,-0.84 c -0.24,-0.12 -0.36,-0.08 -0.56,0.12 -1.52,2.24 -3.56,3.32 -6.24,3.32 -3.92,0 -7,-3.2 -7,-7.12 z m 0.08,-2.8 c -0.04,-3.56 2.36,-7.12 6.64,-7.12 3.92,0 6.2,3.12 6.2,6.56 0,0.48 -0.12,0.56 -0.68,0.56 z"
           style="font-style:normal;font-variant:normal;font-weight:normal;font-stretch:normal;font-family:'Libre Franklin';-inkscape-font-specification:'Libre Franklin';fill:#000000;fill-opacity:0.82338897"
           id="path853" />
        <path
           d="m 358.4718,53.73373 c -5.84,0 -10.04,4.56 -10.04,11.08 0,6.52 4.12,10.92 10.04,10.92 4.24,0 7.04,-2.4 8.56,-5.24 0.08,-0.28 0.04,-0.44 -0.16,-0.52 l -1.72,-0.64 c -0.24,-0.12 -0.36,-0.08 -0.52,0.16 -1.52,2.48 -3.32,3.76 -5.88,3.76 -4.16,0 -6.88,-3.2 -6.88,-8.52 0,-5.28 2.68,-8.52 6.8,-8.52 2.12,0 3.52,1.12 5.16,3.32 0.16,0.28 0.32,0.36 0.52,0.28 l 2.2,-0.52 c 0.28,-0.08 0.36,-0.24 0.2,-0.6 -1.52,-2.76 -4.16,-4.96 -8.28,-4.96 z"
           style="font-style:normal;font-variant:normal;font-weight:normal;font-stretch:normal;font-family:'Libre Franklin';-inkscape-font-specification:'Libre Franklin';fill:#000000;fill-opacity:0.82338897"
           id="path855" />
        <path
           d="m 381.52367,56.61373 c 0.32,0 0.44,-0.12 0.44,-0.4 v -1.72 c 0,-0.24 -0.16,-0.36 -0.44,-0.36 h -5.04 c -0.2,0 -0.32,-0.12 -0.32,-0.32 v -6.32 c 0,-0.4 -0.16,-0.56 -0.48,-0.56 h -2 c -0.32,0 -0.44,0.16 -0.44,0.52 l -0.44,6.36 c 0,0.2 -0.12,0.32 -0.28,0.32 h -3.4 c -0.28,0 -0.4,0.12 -0.4,0.4 v 1.68 c 0,0.28 0.12,0.4 0.44,0.4 h 3.2 c 0.28,0 0.4,0.16 0.4,0.44 v 13.36 c 0,3.4 1.48,4.92 4.84,4.92 0.92,0 2.92,-0.04 3.76,-0.2 0.32,-0.08 0.48,-0.2 0.48,-0.52 l 0.04,-1.36 c 0,-0.28 -0.16,-0.44 -0.44,-0.44 h -2.76 c -1.72,0 -2.56,-0.64 -2.56,-3.16 v -12.68 c 0,-0.24 0.12,-0.36 0.32,-0.36 z"
           style="font-style:normal;font-variant:normal;font-weight:normal;font-stretch:normal;font-family:'Libre Franklin';-inkscape-font-specification:'Libre Franklin';fill:#000000;fill-opacity:0.82338897"
           id="path857" />
        <path
           d="m 389.83242,46.25373 c 0,-0.36 -0.24,-0.6 -0.56,-0.6 h -2.52 c -0.36,0 -0.56,0.24 -0.56,0.64 v 3.36 c 0,0.4 0.12,0.68 0.6,0.68 h 2.32 c 0.56,0 0.72,-0.28 0.72,-0.76 z m -0.16,8.4 c 0,-0.36 -0.12,-0.52 -0.44,-0.52 h -2.44 c -0.32,0 -0.48,0.16 -0.48,0.56 v 20.08 c 0,0.4 0.12,0.56 0.6,0.56 h 2.04 c 0.56,0 0.72,-0.16 0.72,-0.68 z"
           style="font-style:normal;font-variant:normal;font-weight:normal;font-stretch:normal;font-family:'Libre Franklin';-inkscape-font-specification:'Libre Franklin';fill:#000000;fill-opacity:0.82338897"
           id="path859" />
        <path
           d="m 413.08367,54.13373 h -1.84 c -0.32,0 -0.52,0.16 -0.6,0.44 l -6.24,15.68 c -0.24,0.56 -0.44,0.56 -0.64,0.04 l -6.28,-15.72 c -0.12,-0.28 -0.32,-0.44 -0.64,-0.44 h -2.48 c -0.4,0 -0.56,0.28 -0.44,0.6 l 8.08,20.04 c 0.16,0.4 0.48,0.56 1,0.56 h 1.44 c 0.48,0 0.76,-0.16 0.92,-0.6 l 8.12,-20.04 c 0.12,-0.28 -0.04,-0.56 -0.4,-0.56 z"
           style="font-style:normal;font-variant:normal;font-weight:normal;font-stretch:normal;font-family:'Libre Franklin';-inkscape-font-specification:'Libre Franklin';fill:#000000;fill-opacity:0.82338897"
           id="path861" />
        <path
           d="m 418.94305,66.05373 c 0,-0.36 0.12,-0.6 0.36,-0.6 h 15.32 c 0.64,0 0.6,-0.44 0.6,-0.88 0,-6.84 -3.84,-10.84 -9.64,-10.84 -5.72,0 -10.12,4.28 -10.12,11.2 0,6.4 4.24,10.8 10.16,10.8 3.96,0 6.76,-1.36 8.88,-4.6 0.16,-0.24 0.12,-0.44 -0.08,-0.56 l -1.68,-0.84 c -0.24,-0.12 -0.36,-0.08 -0.56,0.12 -1.52,2.24 -3.56,3.32 -6.24,3.32 -3.92,0 -7,-3.2 -7,-7.12 z m 0.08,-2.8 c -0.04,-3.56 2.36,-7.12 6.64,-7.12 3.92,0 6.2,3.12 6.2,6.56 0,0.48 -0.12,0.56 -0.68,0.56 z"
           style="font-style:normal;font-variant:normal;font-weight:normal;font-stretch:normal;font-family:'Libre Franklin';-inkscape-font-specification:'Libre Franklin';fill:#000000;fill-opacity:0.82338897"
           id="path863" />
        <path
           d="m 447.61992,75.33373 h 2.4 c 0.32,0 0.52,-0.12 0.6,-0.36 l 2.84,-7.8 c 0.08,-0.24 0.2,-0.32 0.48,-0.32 h 11.64 c 0.32,0 0.4,0.12 0.48,0.32 l 2.76,7.76 c 0.12,0.28 0.32,0.4 0.64,0.4 h 2.84 c 0.36,0 0.48,-0.32 0.4,-0.68 l -10.24,-28.4 c -0.12,-0.4 -0.44,-0.6 -0.92,-0.6 h -3.12 c -0.48,0 -0.64,0.16 -0.8,0.56 l -10.36,28.44 c -0.16,0.44 0.04,0.68 0.36,0.68 z m 7.24,-11.52 c -0.32,0 -0.4,-0.12 -0.24,-0.44 l 4.88,-13.24 c 0.16,-0.48 0.36,-0.48 0.56,0 l 4.8,13.16 c 0.08,0.32 0.04,0.52 -0.32,0.52 z"
           style="font-style:normal;font-variant:normal;font-weight:normal;font-stretch:normal;font-family:'Libre Franklin';-inkscape-font-specification:'Libre Franklin';fill:#000000;fill-opacity:0.82338897"
           id="path865" />
        <path
           d="m 480.96242,46.17373 c 0,-0.36 -0.16,-0.52 -0.48,-0.52 h -2.4 c -0.32,0 -0.48,0.16 -0.48,0.56 l -0.04,28.56 c 0,0.4 0.12,0.56 0.6,0.56 h 2.08 c 0.52,0 0.72,-0.16 0.72,-0.68 z"
           style="font-style:normal;font-variant:normal;font-weight:normal;font-stretch:normal;font-family:'Libre Franklin';-inkscape-font-specification:'Libre Franklin';fill:#000000;fill-opacity:0.82338897"
           id="path867" />
        <path
           d="m 497.77367,56.61373 c 0.32,0 0.44,-0.12 0.44,-0.4 v -1.72 c 0,-0.24 -0.16,-0.36 -0.44,-0.36 h -5.04 c -0.2,0 -0.32,-0.12 -0.32,-0.32 v -6.32 c 0,-0.4 -0.16,-0.56 -0.48,-0.56 h -2 c -0.32,0 -0.44,0.16 -0.44,0.52 l -0.44,6.36 c 0,0.2 -0.12,0.32 -0.28,0.32 h -3.4 c -0.28,0 -0.4,0.12 -0.4,0.4 v 1.68 c 0,0.28 0.12,0.4 0.44,0.4 h 3.2 c 0.28,0 0.4,0.16 0.4,0.44 v 13.36 c 0,3.4 1.48,4.92 4.84,4.92 0.92,0 2.92,-0.04 3.76,-0.2 0.32,-0.08 0.48,-0.2 0.48,-0.52 l 0.04,-1.36 c 0,-0.28 -0.16,-0.44 -0.44,-0.44 h -2.76 c -1.72,0 -2.56,-0.64 -2.56,-3.16 v -12.68 c 0,-0.24 0.12,-0.36 0.32,-0.36 z"
           style="font-style:normal;font-variant:normal;font-weight:normal;font-stretch:normal;font-family:'Libre Franklin';-inkscape-font-specification:'Libre Franklin';fill:#000000;fill-opacity:0.82338897"
           id="path869" />
        <path
           d="m 503.12242,75.33373 h 2.2 c 0.4,0 0.6,-0.16 0.6,-0.6 v -13.24 c 0,-2.32 3.36,-4.64 5.72,-4.64 0.68,0 1.32,0.04 1.8,0.12 0.24,0.04 0.36,-0.08 0.36,-0.32 v -2.4 c 0,-0.36 -0.44,-0.52 -1.4,-0.52 -2.08,0 -4.12,1.12 -6.2,3.56 -0.24,0.28 -0.44,0.2 -0.44,-0.12 v -2.6 c 0,-0.28 -0.12,-0.44 -0.44,-0.44 h -2.32 c -0.28,0 -0.44,0.16 -0.44,0.52 v 20.16 c 0,0.36 0.16,0.52 0.56,0.52 z"
           style="font-style:normal;font-variant:normal;font-weight:normal;font-stretch:normal;font-family:'Libre Franklin';-inkscape-font-specification:'Libre Franklin';fill:#000000;fill-opacity:0.82338897"
           id="path871" />
        <path
           d="m 525.07492,73.09373 c -2.56,0 -4.12,-1.72 -4.12,-4.36 v -14.04 c 0,-0.4 -0.16,-0.56 -0.52,-0.56 h -2.24 c -0.4,0 -0.6,0.2 -0.6,0.6 v 14.88 c 0,3.72 2.72,6.12 6.4,6.12 2.24,0 4.32,-0.8 7.28,-3.32 0.24,-0.24 0.36,-0.16 0.36,0.12 v 2.36 c 0,0.32 0.12,0.44 0.44,0.44 h 2.32 c 0.32,0 0.44,-0.16 0.44,-0.52 l 0.08,-20.12 c 0,-0.4 -0.2,-0.56 -0.56,-0.56 h -2.2 c -0.44,0 -0.64,0.2 -0.64,0.56 v 14.92 c -2.08,2.12 -4.16,3.48 -6.44,3.48 z"
           style="font-style:normal;font-variant:normal;font-weight:normal;font-stretch:normal;font-family:'Libre Franklin';-inkscape-font-specification:'Libre Franklin';fill:#000000;fill-opacity:0.82338897"
           id="path873" />
        <path
           d="m 544.51992,46.25373 c 0,-0.36 -0.24,-0.6 -0.56,-0.6 h -2.52 c -0.36,0 -0.56,0.24 -0.56,0.64 v 3.36 c 0,0.4 0.12,0.68 0.6,0.68 h 2.32 c 0.56,0 0.72,-0.28 0.72,-0.76 z m -0.16,8.4 c 0,-0.36 -0.12,-0.52 -0.44,-0.52 h -2.44 c -0.32,0 -0.48,0.16 -0.48,0.56 v 20.08 c 0,0.4 0.12,0.56 0.6,0.56 h 2.04 c 0.56,0 0.72,-0.16 0.72,-0.68 z"
           style="font-style:normal;font-variant:normal;font-weight:normal;font-stretch:normal;font-family:'Libre Franklin';-inkscape-font-specification:'Libre Franklin';fill:#000000;fill-opacity:0.82338897"
           id="path875" />
        <path
           d="m 563.25117,58.81373 c 0.16,0.2 0.4,0.24 0.6,0.12 l 1.68,-0.92 c 0.24,-0.12 0.2,-0.32 0.04,-0.56 -1.48,-2.24 -4.4,-3.72 -7.96,-3.72 -4.88,0 -8.2,2.56 -8.16,6.36 0,2.44 1.44,4.32 5.44,5.36 l 4.12,1.16 c 2.84,0.8 3.92,1.8 3.92,3.24 0,2.08 -2.36,3.4 -5.44,3.44 -3.32,0 -5.4,-1.4 -6.68,-3.44 -0.12,-0.16 -0.32,-0.2 -0.6,-0.04 l -1.56,0.88 c -0.24,0.16 -0.24,0.36 -0.08,0.64 1.32,2.56 4.68,4.4 8.88,4.4 4.96,0 8.64,-2.48 8.64,-6.24 0,-2.52 -1.56,-4.52 -5.2,-5.52 l -5.08,-1.52 c -2.64,-0.8 -3.24,-1.88 -3.24,-2.96 0,-2.08 2.12,-3.4 5,-3.4 2.64,0 4.6,1.12 5.68,2.72 z"
           style="font-style:normal;font-variant:normal;font-weight:normal;font-stretch:normal;font-family:'Libre Franklin';-inkscape-font-specification:'Libre Franklin';fill:#000000;fill-opacity:0.82338897"
           id="path877" />
        <path
           d="m 571.55992,75.33373 h 2.2 c 0.44,0 0.6,-0.16 0.6,-0.6 v -15.12 c 2.44,-2.16 4,-3.24 6.28,-3.24 2.68,0 3.84,1.56 3.84,4.16 v 14.28 c 0,0.36 0.2,0.52 0.52,0.52 h 2.24 c 0.36,0 0.6,-0.2 0.6,-0.64 v -14.44 c 0,-0.48 0.16,-0.76 0.56,-1.16 1.32,-1.16 3.32,-2.72 5.72,-2.72 2.64,0 3.84,1.56 3.84,4.16 v 14.28 c 0,0.36 0.16,0.52 0.52,0.52 h 2.24 c 0.4,0 0.6,-0.2 0.6,-0.64 v -14.88 c 0,-3.68 -2.24,-6.08 -6.12,-6.08 -2.64,0 -4.72,1.32 -7.24,3.44 -0.24,0.2 -0.48,0.32 -0.56,0.08 -0.64,-1.84 -2.52,-3.52 -5.68,-3.52 -2.68,0 -4.52,1.2 -7.08,3.28 -0.28,0.24 -0.4,0.16 -0.4,-0.12 v -2.32 c 0,-0.28 -0.12,-0.44 -0.4,-0.44 h -2.4 c -0.28,0 -0.44,0.2 -0.44,0.52 v 20.16 c 0,0.36 0.16,0.52 0.56,0.52 z"
           style="font-style:normal;font-variant:normal;font-weight:normal;font-stretch:normal;font-family:'Libre Franklin';-inkscape-font-specification:'Libre Franklin';fill:#000000;fill-opacity:0.82338897"
           id="path879" />
        <path
           d="m 272.26117,128.42136 h 11.4 c 8.16,0 12.28,-2.6 12.28,-8.04 0,-3.56 -1.8,-5.68 -5.96,-7.04 -0.16,-0.04 -0.16,-0.28 0,-0.32 3.88,-1.6 5.24,-3.56 5.24,-6.48 0,-5.12 -4.24,-7.799999 -12.08,-7.799999 h -10.84 c -0.48,0 -0.8,0.32 -0.8,0.84 v 28.119999 c 0,0.4 0.28,0.72 0.76,0.72 z m 6.8,-17.44 c -0.44,0 -0.56,-0.2 -0.56,-0.72 v -6.12 c 0,-0.48 0.2,-0.68 0.76,-0.68 h 4.12 c 2.88,0 4.92,1.36 4.92,3.88 0,2.48 -2.12,3.64 -4.56,3.64 z m 0,12.72 c -0.44,0 -0.56,-0.24 -0.56,-0.76 v -6.4 c 0,-0.52 0.2,-0.68 0.76,-0.68 h 4.48 c 2.88,0 4.92,1.36 4.92,3.88 0,2.36 -1.72,3.96 -5.2,3.96 z"
           style="font-style:normal;font-variant:normal;font-weight:bold;font-stretch:normal;font-family:'Libre Franklin';-inkscape-font-specification:'Libre Franklin';fill:#000000;fill-opacity:0.82338897"
           id="path881" />
        <path
           d="m 305.20742,119.62136 c 0,-0.44 0.16,-0.64 0.48,-0.64 h 13.6 c 0.68,-0.04 0.68,-0.36 0.68,-0.96 0,-7.08 -4.32,-11.2 -10.4,-11.2 -5.84,0 -10.72,4.44 -10.72,11.32 0,6.32 4.6,10.68 10.84,10.68 4.28,0 7,-1.2 9.6,-4.92 0.28,-0.36 0.2,-0.64 -0.12,-0.8 l -2.88,-1.2 c -0.4,-0.2 -0.52,-0.16 -0.72,0.04 -1.68,1.92 -3.24,2.68 -5.12,2.68 -2.92,0 -5.24,-1.96 -5.24,-5 z m 0.08,-4.04 c -0.04,-2.92 1.84,-5 4.52,-5 2.76,0 4.12,2.48 4.12,4.48 0,0.48 -0.12,0.56 -0.68,0.56 z"
           style="font-style:normal;font-variant:normal;font-weight:bold;font-stretch:normal;font-family:'Libre Franklin';-inkscape-font-specification:'Libre Franklin';fill:#000000;fill-opacity:0.82338897"
           id="path883" />
        <path
           d="m 324.08492,128.42136 h 4.28 c 0.72,0 1.04,-0.28 1.04,-0.92 v -11.68 c 0,-1.76 2.36,-3.48 4.36,-3.48 0.72,0 1.84,0.08 2.8,0.32 0.36,0.08 0.6,-0.12 0.6,-0.52 v -4.64 c 0,-0.48 -0.48,-0.68 -1.44,-0.68 -1.96,0 -4.36,1.4 -5.96,3.56 -0.24,0.32 -0.56,0.24 -0.56,-0.12 v -2.36 c 0,-0.44 -0.24,-0.68 -0.64,-0.68 h -4.68 c -0.4,0 -0.64,0.28 -0.64,0.76 v 19.64 c 0,0.52 0.24,0.8 0.84,0.8 z"
           style="font-style:normal;font-variant:normal;font-weight:bold;font-stretch:normal;font-family:'Libre Franklin';-inkscape-font-specification:'Libre Franklin';fill:#000000;fill-opacity:0.82338897"
           id="path885" />
        <path
           d="m 346.47617,99.461361 c 0,-0.48 -0.2,-0.72 -0.6,-0.72 h -4.84 c -0.4,0 -0.64,0.24 -0.64,0.76 l -0.12,28.079999 c 0,0.6 0.2,0.84 0.88,0.84 h 4.24 c 0.76,0 1.08,-0.24 1.08,-0.96 z"
           style="font-style:normal;font-variant:normal;font-weight:bold;font-stretch:normal;font-family:'Libre Franklin';-inkscape-font-specification:'Libre Franklin';fill:#000000;fill-opacity:0.82338897"
           id="path887" />
        <path
           d="m 357.14117,99.501361 c 0,-0.48 -0.28,-0.76 -0.64,-0.76 h -4.96 c -0.44,0 -0.68,0.28 -0.68,0.8 v 4.199999 c 0,0.6 0.2,0.92 0.88,0.92 h 4.32 c 0.76,0 1.08,-0.32 1.08,-1 z m -0.08,8.399999 c 0,-0.44 -0.2,-0.68 -0.6,-0.68 h -4.88 c -0.44,0 -0.68,0.24 -0.68,0.76 v 19.6 c 0,0.6 0.2,0.84 0.88,0.84 h 4.2 c 0.8,0 1.08,-0.24 1.08,-0.96 z"
           style="font-style:normal;font-variant:normal;font-weight:bold;font-stretch:normal;font-family:'Libre Franklin';-inkscape-font-specification:'Libre Franklin';fill:#000000;fill-opacity:0.82338897"
           id="path889" />
        <path
           d="m 362.36617,128.42136 h 4.28 c 0.76,0 1.04,-0.28 1.04,-0.92 v -13.76 c 1.48,-1.64 2.72,-2.48 4.4,-2.48 1.92,0 2.92,1.08 2.92,2.84 v 13.52 c 0,0.6 0.2,0.8 0.76,0.8 h 4.44 c 0.68,0 0.96,-0.32 0.96,-0.96 v -14.32 c 0,-3.84 -2.44,-6.32 -6.32,-6.32 -2.6,0 -4.72,1.28 -6.76,3.2 -0.32,0.28 -0.48,0.16 -0.48,-0.16 v -1.96 c 0,-0.44 -0.2,-0.68 -0.6,-0.68 h -4.84 c -0.4,0 -0.64,0.28 -0.64,0.76 v 19.64 c 0,0.56 0.24,0.8 0.84,0.8 z"
           style="font-style:normal;font-variant:normal;font-weight:bold;font-stretch:normal;font-family:'Libre Franklin';-inkscape-font-specification:'Libre Franklin';fill:#000000;fill-opacity:0.82338897"
           id="path891" />
      </g>
    </g>
    <g
       id="g830"
       transform="matrix(0.00711323,0,0,-0.00711323,-18.056923,300.01125)"
       style="fill:#000000;stroke:none">
      <path
         id="path828"
         d="M 5830,11570 C 4964,11519 4157,11157 3545,10545 2841,9841 2471,8881 2521,7890 c 10,-209 23,-317 60,-509 59,-303 147,-565 285,-849 129,-268 250,-459 433,-687 250,-310 362,-543 536,-1110 20,-66 54,-157 75,-202 142,-305 397,-529 700,-616 171,-49 210,-52 695,-52 h 460 l 80,28 c 100,35 166,73 259,147 254,201 591,626 1049,1321 184,280 243,380 353,602 139,283 260,587 324,813 211,750 20,1347 -518,1618 -130,66 -343,116 -493,116 -218,0 -458,-105 -702,-308 l -78,-64 -87,84 c -244,234 -461,321 -750,297 -543,-43 -943,-412 -1037,-953 -19,-114 -20,-360 0,-490 63,-419 247,-794 622,-1268 186,-235 449,-515 516,-549 81,-42 212,-43 290,-3 49,26 107,86 135,138 24,45 27,62 27,146 0,124 -11,144 -170,313 -561,599 -810,1052 -809,1472 0,135 16,211 66,309 40,80 127,164 209,205 79,39 212,65 287,56 104,-13 250,-109 343,-226 l 31,-40 -22,-87 c -28,-109 -38,-288 -20,-363 29,-125 125,-245 236,-296 48,-22 66,-25 124,-21 83,6 134,33 207,110 85,91 133,210 133,333 0,61 -22,214 -39,272 -9,29 -6,34 47,88 114,114 284,202 408,213 126,10 272,-45 367,-136 92,-89 143,-261 133,-447 -15,-267 -126,-601 -352,-1055 -215,-432 -487,-844 -817,-1236 -267,-319 -384,-438 -467,-478 l -65,-31 -340,1 c -378,0 -424,6 -539,66 -136,72 -224,203 -287,428 -103,371 -264,737 -443,1010 -35,52 -110,154 -168,226 -354,441 -551,888 -634,1439 -22,142 -29,494 -15,651 53,564 269,1101 621,1544 103,130 312,339 446,446 406,325 870,527 1404,611 164,26 635,26 800,0 473,-74 908,-248 1268,-505 568,-408 966,-993 1131,-1662 101,-409 113,-781 41,-1210 -88,-522 -308,-1028 -609,-1399 -141,-175 -172,-216 -240,-321 -266,-408 -441,-917 -511,-1485 -6,-49 -17,-198 -24,-330 -15,-278 -18,-287 -120,-393 -163,-170 -480,-306 -928,-396 -405,-82 -792,-120 -1383,-134 l -300,-8 -63,-34 c -107,-57 -154,-133 -160,-262 -4,-76 -1,-92 20,-140 33,-71 75,-118 140,-153 50,-28 61,-30 178,-32 1080,-22 1235,-28 1550,-58 436,-42 725,-124 843,-239 61,-59 68,-88 31,-127 -63,-65 -228,-115 -494,-149 -267,-34 -463,-41 -1255,-47 -721,-5 -773,-7 -821,-24 -71,-27 -127,-79 -163,-151 -27,-53 -31,-72 -31,-143 0,-72 4,-90 31,-144 21,-43 47,-75 81,-101 81,-65 113,-70 432,-70 325,0 803,-15 991,-30 463,-38 783,-126 1015,-279 81,-53 212,-183 284,-281 77,-104 86,-112 161,-146 114,-52 250,-31 348,55 76,67 113,201 87,311 -29,122 -231,366 -436,526 l -53,41 37,17 c 65,32 174,106 229,159 111,105 184,235 215,384 19,93 19,103 4,205 -41,287 -225,514 -528,652 l -73,33 81,41 c 183,92 378,249 486,392 60,79 140,241 163,330 10,38 20,141 26,250 26,521 84,833 214,1166 98,251 221,462 385,659 342,411 578,882 719,1436 257,1007 93,2030 -460,2869 -439,667 -1110,1179 -1860,1418 -399,128 -863,186 -1279,162 z"
         inkscape:connector-curvature="0" />
    </g>
  </g>
</svg>
